<?xml version="1.0" encoding="utf-8"?>
<!-- Generator: Adobe Illustrator 27.7.0, SVG Export Plug-In . SVG Version: 6.00 Build 0)  -->
<svg version="1.1" id="Layer_1" xmlns="http://www.w3.org/2000/svg" xmlns:xlink="http://www.w3.org/1999/xlink" x="0px" y="0px"
	 viewBox="0 0 2100 2100" style="enable-background:new 0 0 2100 2100;" xml:space="preserve">
<style type="text/css">
	.st0{fill-rule:evenodd;clip-rule:evenodd;fill:#01D2CF;}
</style>
<path class="st0" d="M1084.8,603c88.1,0,160.1,72.1,160.1,160.1V783h-65.6c-17.1-34.9-53-58.9-94.5-58.9
	c-58.1,0-105.2,47.1-105.2,105.2c0,58.1,47.1,105.2,105.2,105.2c34,0,64.3-16.2,83.5-41.2h76.6v398.7c0,88.1-72.1,160.1-160.1,160.1
	s-160.1-72.1-160.1-160.1V763.1C924.7,675.1,996.8,603,1084.8,603z M1084.8,1150.4c26.7,0,48.4,21.7,48.4,48.4
	c0,18.1-9.9,33.8-24.5,42.1v74.7c0,13.1-10.7,23.9-23.9,23.9c-13.1,0-23.9-10.7-23.9-23.9v-74.7c-14.6-8.3-24.5-24.1-24.5-42.1
	C1036.4,1172.1,1058.1,1150.4,1084.8,1150.4"/>
<path class="st0" d="M1084.8,760.1c30.8,0,57,19.6,66.9,47h248.4c17.2,0,31.3,14.1,31.3,31.3c0,17.2-14.1,31.3-31.3,31.3h-255.5
	c-12.7,19.6-34.7,32.6-59.8,32.6c-39.3,0-71.1-31.8-71.1-71.1C1013.7,791.9,1045.6,760.1,1084.8,760.1"/>
</svg>
