<?xml version="1.0" encoding="utf-8"?>
<!-- Generator: Adobe Illustrator 27.7.0, SVG Export Plug-In . SVG Version: 6.00 Build 0)  -->
<svg version="1.1" id="Layer_1" xmlns="http://www.w3.org/2000/svg" xmlns:xlink="http://www.w3.org/1999/xlink" x="0px" y="0px"
	 viewBox="0 0 4000 4000" style="enable-background:new 0 0 4000 4000;" xml:space="preserve">
<style type="text/css">
	.st0{fill:#01D2CF;}
	.st1{opacity:0.37;fill:#C9C9C9;}
</style>
<path class="st0" d="M2380.8,1449.9h-761.7c-93.8,0-169.3,75.5-169.3,169.3v761.7c0,93.8,75.5,169.3,169.3,169.3h761.7
	c93.8,0,169.3-75.5,169.3-169.3v-761.7C2550.1,1525.4,2474.6,1449.9,2380.8,1449.9z M2445.6,2308.5c0,75.9-61.1,137.1-137.1,137.1
	h-616.9c-75.9,0-137.1-61.1-137.1-137.1v-616.9c0-75.9,61.1-137.1,137.1-137.1h616.9c75.9,0,137.1,61.1,137.1,137.1V2308.5z"/>
<path class="st1" d="M1691.5,1554.4h616.9c75.9,0,137.1,61.1,137.1,137.1v616.9c0,75.9-61.1,137.1-137.1,137.1h-616.9
	c-75.9,0-137.1-61.1-137.1-137.1v-616.9C1554.4,1615.6,1615.6,1554.4,1691.5,1554.4L1691.5,1554.4z"/>
<path class="st0" d="M2142.1,1741.5c-12.3,0-24.6,4.7-34.1,14.2c-18.9,18.9-18.9,49.3,0,68.1l34.1,34.1l-34.1,34.1
	c-18.9,18.9-18.9,49.3,0,68.1c18.9,18.9,49.3,18.9,68.1,0l34.1-34.1l34.1,34.1c18.9,18.9,49.3,18.9,68.1,0
	c18.9-18.9,18.9-49.3,0-68.1l-34.1-34.1l34.1-34.1c18.9-18.9,18.9-49.3,0-68.1c-18.9-18.9-49.3-18.9-68.1,0l-34.1,34.1l-34.1-34.1
	C2166.8,1746.2,2154.4,1741.5,2142.1,1741.5"/>
<path class="st0" d="M1721.6,1741.5c-12.3,0-24.6,4.7-34.1,14.2c-18.9,18.9-18.9,49.3,0,68.1l34.1,34.1l-34.1,34.1
	c-18.9,18.9-18.9,49.3,0,68.1c18.9,18.9,49.3,18.9,68.1,0l34.1-34.1l34.1,34.1c18.9,18.9,49.3,18.9,68.1,0
	c18.9-18.9,18.9-49.3,0-68.1l-34.1-34.1l34.1-34.1c18.9-18.9,18.9-49.3,0-68.1c-18.9-18.9-49.3-18.9-68.1,0l-34.1,34.1l-34.1-34.1
	C1746.2,1746.2,1733.9,1741.5,1721.6,1741.5"/>
<path class="st0" d="M1859.3,2199.4h281.5v87.1h-281.5V2199.4"/>
<path class="st0" d="M1705.4,2199.4h119.5v87.1h-119.5V2199.4"/>
<path class="st0" d="M2177.5,2199.4h119.5v87.1h-119.5V2199.4"/>
</svg>
